<svg width="37" height="30" viewBox="0 0 37 30" fill="none" xmlns="http://www.w3.org/2000/svg">
<path d="M35.576 13.5989L22.5195 0.575795C22.1468 0.20405 21.6501 0 21.1204 0C20.5902 0 20.0937 0.204343 19.721 0.575795L18.5356 1.75846C18.1632 2.12962 17.958 2.62538 17.958 3.15398C17.958 3.68228 18.1632 4.19475 18.5356 4.56591L26.1525 12.18H1.95317C0.8621 12.18 0 13.0319 0 14.1205V15.7925C0 16.881 0.8621 17.8189 1.95317 17.8189H26.2389L18.5359 25.4754C18.1635 25.8472 17.9583 26.3295 17.9583 26.858C17.9583 27.3861 18.1635 27.8754 18.5359 28.2468L19.7213 29.4257C20.094 29.7974 20.5905 30 21.1207 30C21.6504 30 22.1471 29.7948 22.5198 29.423L35.5763 16.4002C35.9498 16.0273 36.1553 15.5295 36.1538 15.0003C36.155 14.4694 35.9499 13.9712 35.576 13.5989Z" fill="#59B7DD"/>
</svg>
