<svg width="25" height="25" viewBox="0 0 25 25" fill="none" xmlns="http://www.w3.org/2000/svg">
<path d="M20.5 16C21.3284 16 22 15.3284 22 14.5C22 13.6716 21.3284 13 20.5 13C19.6716 13 19 13.6716 19 14.5C19 15.3284 19.6716 16 20.5 16Z" fill="#FFFFFF"/>
<path d="M20.5 11C21.3284 11 22 10.3284 22 9.5C22 8.67157 21.3284 8 20.5 8C19.6716 8 19 8.67157 19 9.5C19 10.3284 19.6716 11 20.5 11Z" fill="#FFFFFF"/>
<path d="M15.5 16C16.3284 16 17 15.3284 17 14.5C17 13.6716 16.3284 13 15.5 13C14.6716 13 14 13.6716 14 14.5C14 15.3284 14.6716 16 15.5 16Z" fill="#FFFFFF"/>
<path d="M15.5 11C16.3284 11 17 10.3284 17 9.5C17 8.67157 16.3284 8 15.5 8C14.6716 8 14 8.67157 14 9.5C14 10.3284 14.6716 11 15.5 11Z" fill="#FFFFFF"/>
<path d="M10.5 16C11.3284 16 12 15.3284 12 14.5C12 13.6716 11.3284 13 10.5 13C9.67157 13 9 13.6716 9 14.5C9 15.3284 9.67157 16 10.5 16Z" fill="#FFFFFF"/>
<path d="M10.5 21C11.3284 21 12 20.3284 12 19.5C12 18.6716 11.3284 18 10.5 18C9.67157 18 9 18.6716 9 19.5C9 20.3284 9.67157 21 10.5 21Z" fill="#FFFFFF"/>
<path d="M10.5 11C11.3284 11 12 10.3284 12 9.5C12 8.67157 11.3284 8 10.5 8C9.67157 8 9 8.67157 9 9.5C9 10.3284 9.67157 11 10.5 11Z" fill="#FFFFFF"/>
<path d="M5.5 16C6.32843 16 7 15.3284 7 14.5C7 13.6716 6.32843 13 5.5 13C4.67157 13 4 13.6716 4 14.5C4 15.3284 4.67157 16 5.5 16Z" fill="#FFFFFF"/>
<path d="M5.5 21C6.32843 21 7 20.3284 7 19.5C7 18.6716 6.32843 18 5.5 18C4.67157 18 4 18.6716 4 19.5C4 20.3284 4.67157 21 5.5 21Z" fill="#FFFFFF"/>
<path fill-rule="evenodd" clip-rule="evenodd" d="M17.9805 1.51572H22.9643C24.0867 1.51572 24.9999 2.46219 25 3.62558V22.8901C25 24.0535 24.0868 25 22.9644 25H2.03562C0.913191 25 0 24.0535 0 22.8901V3.62558C0 2.46219 0.913191 1.51572 2.0355 1.51572H6.52094V0.703328C6.52094 0.31493 6.82472 0 7.19949 0C7.57427 0 7.87805 0.31487 7.87805 0.703328V1.51572H11.5722V0.703328C11.5722 0.31493 11.876 0 12.2508 0C12.6255 0 12.9293 0.31487 12.9293 0.703328V1.51572H16.6234V0.703328C16.6234 0.31493 16.9271 0 17.3019 0C17.6766 0 17.9805 0.31487 17.9805 0.703328V1.51572ZM2.1787 23.412H22.9993C23.3855 23.412 23.6996 23.0965 23.6997 22.7086V3.83708C23.6997 3.44928 23.3855 3.13375 22.9994 3.13375H18.1561V3.94608C18.1561 4.33448 17.8425 4.64941 17.4558 4.64941C17.0691 4.64941 16.7555 4.33442 16.7555 3.94608V3.13375H12.9431V3.94608C12.9431 4.33448 12.6296 4.64941 12.2428 4.64941C11.856 4.64941 11.5425 4.33442 11.5425 3.94608V3.13375H7.73001V3.94608C7.73001 4.33448 7.41649 4.64941 7.02971 4.64941C6.64292 4.64941 6.3294 4.33442 6.3294 3.94608V3.13375H2.1787C1.79257 3.13375 1.4784 3.44928 1.4784 3.83708V22.7087C1.4784 23.0965 1.79257 23.412 2.1787 23.412Z" fill="#FFFFFF"/>
</svg>
