<svg width="18" height="20" viewBox="0 0 18 20" fill="none" xmlns="http://www.w3.org/2000/svg">
<path fill-rule="evenodd" clip-rule="evenodd" d="M9 4L14 7.4933V13.1456L9 17L4 13.1456V7.4933L9 4Z" stroke="#F2F2F2" stroke-width="2"/>
<rect x="14.5" y="17.5" width="1" height="2" transform="rotate(-90 14.5 17.5)" fill="#F2F2F2"/>
<path fill-rule="evenodd" clip-rule="evenodd" d="M8.5 5C9.32843 5 10 4.32843 10 3.5C10 2.67157 9.32843 2 8.5 2C7.67157 2 7 2.67157 7 3.5C7 4.32843 7.67157 5 8.5 5Z" stroke="#F2F2F2" stroke-width="2"/>
<rect x="1" y="10" width="4" height="2" fill="#F2F2F2"/>
<rect x="13" y="10" width="4" height="2" fill="#F2F2F2"/>
<path d="M3.12448 7.45571L1 5.7342V0" stroke="#F2F2F2" stroke-width="2"/>
<path d="M3.12448 14L1 15.7215V19.7561" stroke="#F2F2F2" stroke-width="2"/>
<path d="M14 7.45571L17 5.7342V0" stroke="#F2F2F2" stroke-width="2"/>
<path d="M14 14L17 15.7215V20" stroke="#F2F2F2" stroke-width="2"/>
<path fill-rule="evenodd" clip-rule="evenodd" d="M9 14C9.55228 14 10 13.5523 10 13C10 12.4477 9.55228 12 9 12C8.44772 12 8 12.4477 8 13C8 13.5523 8.44772 14 9 14Z" fill="#F2F2F2"/>
</svg>
