<svg width="21" height="15" viewBox="0 0 21 15" fill="none" xmlns="http://www.w3.org/2000/svg">
<path fill-rule="evenodd" clip-rule="evenodd" d="M8.13799 1.5C8.13799 2.05228 8.58571 2.5 9.13799 2.5H16.1519C16.7042 2.5 17.1519 2.05228 17.1519 1.5C17.1519 0.947715 16.7042 0.5 16.1519 0.5H9.13799C8.58571 0.5 8.13799 0.947715 8.13799 1.5ZM3.91577 5.3452C3.91577 5.89749 4.36349 6.3452 4.91577 6.3452H11.9297C12.482 6.3452 12.9297 5.89749 12.9297 5.3452C12.9297 4.79292 12.482 4.3452 11.9297 4.3452H4.91577C4.36349 4.3452 3.91577 4.79292 3.91577 5.3452ZM2.97955 14.3452C2.42727 14.3452 1.97955 13.8975 1.97955 13.3452C1.97955 12.7929 2.42727 12.3452 2.97955 12.3452H17.9884C18.5407 12.3452 18.9884 12.7929 18.9884 13.3452C18.9884 13.8975 18.5407 14.3452 17.9884 14.3452H2.97955ZM7.42274 9.3452C7.42274 9.89749 7.8304 10.3452 8.33328 10.3452H19.5122C20.0151 10.3452 20.4227 9.89749 20.4227 9.3452C20.4227 8.79292 20.0151 8.3452 19.5122 8.3452H8.33328C7.8304 8.3452 7.42274 8.79292 7.42274 9.3452ZM1.77666 10.3452C1.3012 10.3452 0.915771 9.89749 0.915771 9.3452C0.915771 8.79292 1.3012 8.3452 1.77666 8.3452H5.05488C5.53034 8.3452 5.91577 8.79292 5.91577 9.3452C5.91577 9.89749 5.53034 10.3452 5.05488 10.3452H1.77666ZM15.0001 5.3452C15.0001 5.89749 15.4478 6.3452 16.0001 6.3452H18.729C19.2813 6.3452 19.729 5.89749 19.729 5.3452C19.729 4.79292 19.2813 4.3452 18.729 4.3452H16.0001C15.4478 4.3452 15.0001 4.79292 15.0001 5.3452Z" fill="#F2F2F2"/>
</svg>
