<svg width="19" height="19" viewBox="0 0 19 19" fill="none" xmlns="http://www.w3.org/2000/svg">
<rect width="18" height="2" rx="1" fill="#F2F2F2"/>
<rect y="4" width="18" height="2" rx="1" fill="#F2F2F2"/>
<path d="M0.999917 1V13.824C0.985533 15.9904 1.93567 18 3.85033 18C5.76498 18 5.86775 18 5.86775 18" stroke="#F2F2F2" stroke-width="2"/>
<path d="M17 1V8" stroke="#F2F2F2" stroke-width="2"/>
<rect x="4" y="1" width="1" height="2" rx="0.5" fill="#F2F2F2"/>
<rect x="7" y="2" width="1" height="2" rx="0.5" fill="#F2F2F2"/>
<rect x="10" y="1" width="1" height="2" rx="0.5" fill="#F2F2F2"/>
<rect x="13" y="2" width="1" height="2" rx="0.5" fill="#F2F2F2"/>
<path d="M9.70711 14.2799C9.31658 13.8894 8.68342 13.8894 8.29289 14.2799C7.90237 14.6704 7.90237 15.3036 8.29289 15.6941L11.3331 18.7344L17.9626 11.6851C18.3409 11.2828 18.3215 10.6499 17.9192 10.2715C17.5168 9.89318 16.884 9.9126 16.5056 10.3149L11.2891 15.8619L9.70711 14.2799Z" fill="#F2F2F2"/>
</svg>
