<svg width="24" height="25" viewBox="0 0 24 25" fill="none" xmlns="http://www.w3.org/2000/svg">
<path d="M18.3741 13.875C19.3033 13.8611 20.6545 11.8718 19.0277 10.6443C18.7485 10.4336 18.4791 10.2297 18.1402 10.165C18.1772 9.58118 18.1858 9.55624 18.182 8.88281C18.172 7.30695 18.0381 6.87217 18.0371 6.85955L18.0181 6.66876L17.8281 6.64343C17.8153 6.64185 16.5409 6.47418 14.9506 6.41045C14.2883 6.384 13.6668 6.38047 13.093 6.39645C13.0411 6.06419 12.8934 5.74788 12.6467 5.49248C11.983 4.80595 10.8565 4.81436 10.1352 5.51118C9.78562 5.84851 9.58226 6.29579 9.56198 6.76974C9.5595 6.82808 9.8208 7.59554 9.54758 7.73465C8.94072 8.04415 7.51717 9.3943 7.01732 9.87629C4.44499 12.3611 5.13187 15.7402 6.50773 17.4695C6.30131 17.8135 6.87529 18.0999 6.89809 17.8691" stroke="#F2F2F2" stroke-width="1.75"/>
<path d="M7.55683 17.6114C7.55683 17.6114 7.77447 17.9678 6.58389 18.4839C5.39331 19 3.00004 22.008 7.14775 22.5407C13.953 22.5407 13 23.5 13 23.5" stroke="#F2F2F2" stroke-width="1.5"/>
<path fill-rule="evenodd" clip-rule="evenodd" d="M20 16.5C20 18.9853 17.9853 21 15.5 21C13.0147 21 11 18.9853 11 16.5C11 14.0147 13.0147 12 15.5 12C17.9853 12 20 14.0147 20 16.5ZM13 16.5C13 17.8807 14.1193 19 15.5 19C16.8807 19 18 17.8807 18 16.5C18 15.1193 16.8807 14 15.5 14C14.1193 14 13 15.1193 13 16.5Z" fill="#F2F2F2"/>
<path d="M17.3775 19.7826L21.7779 23.2826C22.2101 23.6264 22.8392 23.5547 23.183 23.1225C23.5268 22.6903 23.4551 22.0612 23.0229 21.7174L18.6225 18.2174C18.1903 17.8736 17.5612 17.9453 17.2174 18.3775C16.8736 18.8097 16.9453 19.4388 17.3775 19.7826Z" fill="#F2F2F2"/>
<path fill-rule="evenodd" clip-rule="evenodd" d="M17.5 11C17.7761 11 18 10.7761 18 10.5C18 10.2239 17.7761 10 17.5 10C17.2239 10 17 10.2239 17 10.5C17 10.7761 17.2239 11 17.5 11Z" fill="#F2F2F2"/>
<path fill-rule="evenodd" clip-rule="evenodd" d="M13 10C13.5523 10 14 9.55228 14 9C14 8.44772 13.5523 8 13 8C12.4477 8 12 8.44772 12 9C12 9.55228 12.4477 10 13 10Z" fill="#F2F2F2"/>
</svg>
