<svg width="24" height="24" viewBox="0 0 24 24" fill="none" xmlns="http://www.w3.org/2000/svg">
<rect width="20" height="20" transform="translate(1 4)" fill="#006FA0"/>
<path d="M17.2375 15.3405C17.2375 15.3405 18.2958 15.2269 18.7026 14.8341C19.4243 14.1372 19.4556 12.9948 18.7726 12.2874C18.5236 12.0296 18.2096 11.8581 17.8648 11.7872C17.8935 11.1948 17.9019 10.553 17.8878 9.86893C17.8539 8.26823 17.7114 6.98454 17.7102 6.9717L17.688 6.77763L17.4948 6.74903C17.4819 6.74724 16.1863 6.55764 14.5718 6.46885C13.8994 6.43196 13.2688 6.41897 12.6869 6.42651C12.6292 6.08826 12.4745 5.76476 12.2204 5.50162C11.5365 4.79429 10.3937 4.78578 9.67247 5.48264C9.32281 5.81994 9.12324 6.27114 9.10984 6.75222C9.10821 6.81143 9.38494 7.59488 9.10984 7.73203C8.49879 8.0372 7.07487 9.38696 6.575 9.86894C4.00269 12.3537 4.75076 15.7962 6.1729 17.5734C5.96866 17.9197 6.55537 18.2193 6.575 17.9852C9.67247 20.1178 12.9083 19.4512 14.5718 17.5734C15.7285 16.2678 16.2677 15.7701 16.5945 15.1736L17.2375 15.3405Z" stroke="#F2F2F2" stroke-width="1.75"/>
<path d="M5.55683 17.6114C5.55683 17.6114 5.77447 17.9678 4.58389 18.4839C3.39331 19 1.00004 22.008 5.14775 22.5407C17.9564 21.7158 18.4809 23.3068 18.4809 23.3068" stroke="#F2F2F2" stroke-width="1.5"/>
<path fill-rule="evenodd" clip-rule="evenodd" d="M12 10C12.5523 10 13 9.55228 13 9C13 8.44772 12.5523 8 12 8C11.4477 8 11 8.44772 11 9C11 9.55228 11.4477 10 12 10Z" fill="#F2F2F2"/>
<path fill-rule="evenodd" clip-rule="evenodd" d="M15 13C15.5523 13 16 12.5523 16 12C16 11.4477 15.5523 11 15 11C14.4477 11 14 11.4477 14 12C14 12.5523 14.4477 13 15 13Z" fill="#F2F2F2"/>
</svg>
