<svg width="92" height="73" viewBox="0 0 92 73" fill="none" xmlns="http://www.w3.org/2000/svg">
<path fill-rule="evenodd" clip-rule="evenodd" d="M0 60H80V0H0V60ZM3.33333 56.6667V44.0233L21.6667 25.69L38.3333 42.3567L66.6667 14.0233L76.6667 24.0233V56.6667H3.33333ZM76.6667 19.31V3.33333H3.33333V39.31L21.6667 20.9767L38.3333 37.6433L66.6667 9.31L76.6667 19.31Z" fill="#354052"/>
<path fill-rule="evenodd" clip-rule="evenodd" d="M47 17.5C47 22.1869 43.4112 26 39 26C34.5888 26 31 22.1869 31 17.5C31 12.8131 34.5888 9 39 9C43.4112 9 47 12.8131 47 17.5ZM43.8 17.5C43.8 14.6882 41.6464 12.4 39 12.4C36.3536 12.4 34.2 14.6882 34.2 17.5C34.2 20.3118 36.3536 22.6 39 22.6C41.6464 22.6 43.8 20.3118 43.8 17.5Z" fill="#354052"/>
<path fill-rule="evenodd" clip-rule="evenodd" d="M75 71C83.2843 71 90 64.2843 90 56C90 47.7157 83.2843 41 75 41C66.7157 41 60 47.7157 60 56C60 64.2843 66.7157 71 75 71Z" fill="#F2F2F2" stroke="#354052" stroke-width="3"/>
<path d="M67 55H83V57H67V55Z" fill="#134563" stroke="#354052"/>
<path d="M74 48H76V64H74V48Z" fill="#354052" stroke="#354052"/>
</svg>
