<svg width="16" height="16" viewBox="0 0 16 16" fill="none" xmlns="http://www.w3.org/2000/svg">
<path d="M2.5 2.53125C4.02083 1.01042 5.85417 0.25 8 0.25C10.1458 0.25 11.9688 1.01042 13.4688 2.53125C14.9896 4.03125 15.75 5.85417 15.75 8C15.75 10.1458 14.9896 11.9792 13.4688 13.5C11.9688 15 10.1458 15.75 8 15.75C5.85417 15.75 4.02083 15 2.5 13.5C1 11.9792 0.25 10.1458 0.25 8C0.25 5.85417 1 4.03125 2.5 2.53125ZM11.8125 10.0312L9.75 8L11.8125 5.96875C11.9792 5.78125 11.9792 5.60417 11.8125 5.4375L10.5625 4.1875C10.3958 4.02083 10.2188 4.02083 10.0312 4.1875L8 6.25L5.96875 4.1875C5.78125 4.02083 5.60417 4.02083 5.4375 4.1875L4.1875 5.4375C4.02083 5.60417 4.02083 5.78125 4.1875 5.96875L6.25 8L4.1875 10.0312C4.02083 10.2188 4.02083 10.3958 4.1875 10.5625L5.4375 11.8125C5.60417 11.9792 5.78125 11.9792 5.96875 11.8125L8 9.75L10.0312 11.8125C10.2188 11.9792 10.3958 11.9792 10.5625 11.8125L11.8125 10.5625C11.9792 10.3958 11.9792 10.2188 11.8125 10.0312Z" fill="#1C8EC6"/>
</svg>
