<svg width="20" height="22" viewBox="0 0 20 22" fill="none" xmlns="http://www.w3.org/2000/svg">
<path fill-rule="evenodd" clip-rule="evenodd" d="M19.413 12.2131C19.4153 12.2303 19.4165 12.2469 19.4177 12.2642C19.4247 12.3449 19.423 12.4263 19.4036 12.507L17.4759 20.3855C17.3936 20.7233 17.0936 20.9602 16.7494 20.9602H3.25238C2.90826 20.9602 2.60826 20.7227 2.52591 20.3861L0.597673 12.5076C0.578261 12.4268 0.576496 12.3455 0.582967 12.2648C0.583555 12.259 0.584078 12.2533 0.584601 12.2477C0.585647 12.2363 0.586693 12.225 0.588261 12.2131C0.600614 12.1294 0.626496 12.0498 0.665908 11.9744C0.667967 11.9706 0.668849 11.9665 0.669732 11.9625C0.670614 11.9585 0.671496 11.9545 0.673555 11.9507L3.24708 7.38235C3.4512 7.01897 3.90885 6.8931 4.26767 7.09854C4.62708 7.30457 4.75297 7.76591 4.54885 8.12869L2.61003 11.5707H6.67826C7.0912 11.5707 7.4265 11.9085 7.4265 12.3259C7.4265 13.7776 8.5812 14.958 10.0006 14.958C11.42 14.958 12.5747 13.777 12.5747 12.3259C12.5747 11.9085 12.9094 11.5707 13.323 11.5707H17.3912L15.453 8.12869C15.2494 7.76651 15.3747 7.30516 15.7341 7.09854C16.093 6.8931 16.55 7.01957 16.7547 7.38235L19.3277 11.9507C19.3298 11.9543 19.3306 11.9583 19.3315 11.9625C19.3324 11.9665 19.3333 11.9706 19.3353 11.9744C19.3747 12.0492 19.4006 12.1294 19.413 12.2131ZM3.83767 19.4485H16.163L17.7206 13.0812H14.0036C13.6536 15.0061 11.9918 16.4685 10 16.4685C8.00826 16.4685 6.3465 15.0061 5.9965 13.0812H2.27944L3.83767 19.4485Z" fill="#FFFFFF"/>
<path d="M19.4177 12.2642L19.1682 12.2812L19.1686 12.2859L19.4177 12.2642ZM19.413 12.2131L19.6607 12.1792L19.6603 12.1766L19.413 12.2131ZM19.4036 12.507L19.6464 12.5664L19.6466 12.5654L19.4036 12.507ZM17.4759 20.3855L17.2331 20.3261L17.233 20.3263L17.4759 20.3855ZM2.52591 20.3861L2.76875 20.3267L2.76874 20.3266L2.52591 20.3861ZM0.597673 12.5076L0.354596 12.566L0.35484 12.567L0.597673 12.5076ZM0.582967 12.2648L0.334209 12.2393L0.333766 12.2448L0.582967 12.2648ZM0.584601 12.2477L0.335656 12.2247L0.335656 12.2247L0.584601 12.2477ZM0.588261 12.2131L0.340911 12.1766L0.340414 12.1804L0.588261 12.2131ZM0.665908 11.9744L0.445328 11.8567L0.444346 11.8586L0.665908 11.9744ZM0.669732 11.9625L0.425579 11.9088L0.425579 11.9088L0.669732 11.9625ZM0.673555 11.9507L0.455683 11.8279L0.452983 11.833L0.673555 11.9507ZM3.24708 7.38235L3.4649 7.50505L3.46505 7.50479L3.24708 7.38235ZM4.26767 7.09854L4.392 6.88165L4.39189 6.88158L4.26767 7.09854ZM4.54885 8.12869L4.76667 8.25139L4.76673 8.25128L4.54885 8.12869ZM2.61003 11.5707L2.39221 11.448L2.18227 11.8207H2.61003V11.5707ZM17.3912 11.5707V11.8207H17.8189L17.609 11.448L17.3912 11.5707ZM15.453 8.12869L15.235 8.25117L15.2351 8.25136L15.453 8.12869ZM15.7341 7.09854L15.6099 6.88158L15.6095 6.8818L15.7341 7.09854ZM16.7547 7.38235L16.9726 7.25967L16.9725 7.25949L16.7547 7.38235ZM19.3277 11.9507L19.1098 12.0734L19.1112 12.0757L19.3277 11.9507ZM19.3315 11.9625L19.0872 12.0152L19.0872 12.0153L19.3315 11.9625ZM19.3353 11.9744L19.5565 11.8579L19.5559 11.8567L19.3353 11.9744ZM16.163 19.4485V19.6985H16.3592L16.4058 19.5079L16.163 19.4485ZM3.83767 19.4485L3.59484 19.508L3.64148 19.6985H3.83767V19.4485ZM17.7206 13.0812L17.9635 13.1406L18.0391 12.8312H17.7206V13.0812ZM14.0036 13.0812V12.8312H13.7949L13.7576 13.0364L14.0036 13.0812ZM5.9965 13.0812L6.24246 13.0364L6.20514 12.8312H5.9965V13.0812ZM2.27944 13.0812V12.8312H1.96088L2.0366 13.1406L2.27944 13.0812ZM19.6671 12.2471C19.666 12.2306 19.6643 12.206 19.6607 12.1792L19.1653 12.247C19.1663 12.2547 19.167 12.2633 19.1683 12.2812L19.6671 12.2471ZM19.6466 12.5654C19.6742 12.4508 19.6753 12.3408 19.6667 12.2424L19.1686 12.2859C19.1741 12.349 19.1717 12.4018 19.1605 12.4486L19.6466 12.5654ZM17.7187 20.4449L19.6464 12.5664L19.1607 12.4476L17.2331 20.3261L17.7187 20.4449ZM16.7494 21.2102C17.2102 21.2102 17.6095 20.8932 17.7188 20.4447L17.233 20.3263C17.1776 20.5535 16.9769 20.7102 16.7494 20.7102V21.2102ZM3.25238 21.2102H16.7494V20.7102H3.25238V21.2102ZM2.28307 20.4455C2.39243 20.8925 2.79154 21.2102 3.25238 21.2102V20.7102C3.02498 20.7102 2.8241 20.5529 2.76875 20.3267L2.28307 20.4455ZM0.35484 12.567L2.28308 20.4455L2.76874 20.3266L0.840506 12.4482L0.35484 12.567ZM0.333766 12.2448C0.325985 12.3419 0.327057 12.4515 0.354598 12.566L0.840748 12.4492C0.829465 12.4022 0.827008 12.3491 0.832168 12.2847L0.333766 12.2448ZM0.335656 12.2247C0.335115 12.2306 0.334706 12.235 0.33427 12.2393L0.831664 12.2902C0.832404 12.283 0.833042 12.2761 0.833546 12.2706L0.335656 12.2247ZM0.340414 12.1804C0.338101 12.1979 0.336643 12.214 0.335656 12.2247L0.833546 12.2706C0.83465 12.2586 0.835284 12.2521 0.836108 12.2458L0.340414 12.1804ZM0.444346 11.8586C0.39204 11.9587 0.3574 12.065 0.340939 12.1766L0.835583 12.2496C0.843828 12.1937 0.860953 12.1409 0.887471 12.0902L0.444346 11.8586ZM0.425579 11.9088C0.424829 11.9122 0.426197 11.9055 0.42856 11.8975C0.431314 11.8882 0.436351 11.8736 0.445336 11.8567L0.886481 12.0921C0.897524 12.0714 0.904032 12.0528 0.907962 12.0395C0.911501 12.0276 0.913752 12.0169 0.913885 12.0163L0.425579 11.9088ZM0.452983 11.833C0.441939 11.8537 0.435431 11.8723 0.431502 11.8855C0.427962 11.8975 0.425712 11.9082 0.425579 11.9088L0.913885 12.0163C0.914634 12.0129 0.913266 12.0196 0.910903 12.0276C0.90815 12.0369 0.903113 12.0515 0.894128 12.0683L0.452983 11.833ZM3.02927 7.25964L0.45574 11.828L0.891371 12.0734L3.4649 7.50505L3.02927 7.25964ZM4.39189 6.88158C3.9122 6.60694 3.30105 6.77581 3.02912 7.25991L3.46505 7.50479C3.60135 7.26214 3.9055 7.17926 4.14346 7.3155L4.39189 6.88158ZM4.76673 8.25128C5.0376 7.76986 4.87152 7.15653 4.392 6.88165L4.14334 7.31543C4.38264 7.45261 4.46833 7.76197 4.33097 8.0061L4.76673 8.25128ZM2.82785 11.6934L4.76667 8.25139L4.33103 8.006L2.39221 11.448L2.82785 11.6934ZM6.67826 11.3207H2.61003V11.8207H6.67826V11.3207ZM7.6765 12.3259C7.6765 11.7725 7.23134 11.3207 6.67826 11.3207V11.8207C6.95106 11.8207 7.1765 12.0445 7.1765 12.3259H7.6765ZM10.0006 14.708C8.72447 14.708 7.6765 13.6448 7.6765 12.3259H7.1765C7.1765 13.9104 8.43793 15.208 10.0006 15.208V14.708ZM12.3247 12.3259C12.3247 13.6443 11.2767 14.708 10.0006 14.708V15.208C11.5633 15.208 12.8247 13.9098 12.8247 12.3259H12.3247ZM13.323 11.3207C12.7692 11.3207 12.3247 11.7726 12.3247 12.3259H12.8247C12.8247 12.0444 13.0497 11.8207 13.323 11.8207V11.3207ZM17.3912 11.3207H13.323V11.8207H17.3912V11.3207ZM15.2351 8.25136L17.1734 11.6933L17.609 11.448L15.6708 8.00603L15.2351 8.25136ZM15.6095 6.8818C15.1303 7.15734 14.9649 7.77046 15.235 8.25117L15.6709 8.00622C15.534 7.76256 15.6192 7.45298 15.8587 7.31527L15.6095 6.8818ZM16.9725 7.25949C16.7001 6.77688 16.09 6.6067 15.6099 6.88158L15.8584 7.3155C16.0959 7.1795 16.3999 7.26226 16.537 7.50521L16.9725 7.25949ZM19.5455 11.828L16.9726 7.25967L16.5369 7.50503L19.1098 12.0733L19.5455 11.828ZM19.5759 11.9097C19.5758 11.9093 19.5734 11.8977 19.5696 11.8849C19.5654 11.8708 19.5579 11.8494 19.5441 11.8256L19.1112 12.0757C19.0996 12.0556 19.0935 12.038 19.0905 12.0278C19.0878 12.019 19.0864 12.0115 19.0872 12.0152L19.5759 11.9097ZM19.5559 11.8567C19.5653 11.8743 19.5704 11.8895 19.573 11.8986C19.5753 11.9065 19.5766 11.9131 19.5759 11.9096L19.0872 12.0153C19.0873 12.0159 19.0895 12.0266 19.093 12.0385C19.0968 12.0515 19.1033 12.0707 19.1148 12.0921L19.5559 11.8567ZM19.6603 12.1766C19.6439 12.0655 19.6094 11.9582 19.5565 11.8579L19.1141 12.0909C19.1401 12.1402 19.1573 12.1933 19.1656 12.2496L19.6603 12.1766ZM16.163 19.1985H3.83767V19.6985H16.163V19.1985ZM17.4778 13.0218L15.9201 19.3891L16.4058 19.5079L17.9635 13.1406L17.4778 13.0218ZM14.0036 13.3312H17.7206V12.8312H14.0036V13.3312ZM10 16.7185C12.118 16.7185 13.8789 15.1643 14.2495 13.1259L13.7576 13.0364C13.4282 14.8479 11.8656 16.2185 10 16.2185V16.7185ZM5.75053 13.1259C6.12116 15.1643 7.88204 16.7185 10 16.7185V16.2185C8.13448 16.2185 6.57183 14.8479 6.24246 13.0364L5.75053 13.1259ZM2.27944 13.3312H5.9965V12.8312H2.27944V13.3312ZM4.08051 19.3891L2.52227 13.0217L2.0366 13.1406L3.59484 19.508L4.08051 19.3891Z" fill="#FFFFFF"/>
<path d="M11.8639 6.2086C11.6762 6.2086 11.488 6.27985 11.3421 6.42235L10.7492 7.00363V1.7552C10.7492 1.33779 10.4145 0.99995 10.001 0.99995C9.58742 0.99995 9.25272 1.33839 9.25272 1.7552V7.00363L8.65919 6.42175C8.36272 6.13141 7.8886 6.13794 7.60036 6.43719C7.31272 6.73644 7.31919 7.215 7.61566 7.50594L9.47919 9.33232C9.50919 9.362 9.54742 9.37566 9.58095 9.39882C9.62566 9.43029 9.66625 9.4665 9.71683 9.48788C9.8986 9.56329 10.1027 9.56329 10.2845 9.48788C10.338 9.46591 10.381 9.42791 10.4274 9.39407C10.4586 9.3721 10.4939 9.35963 10.5221 9.33232L12.3851 7.50594C12.6815 7.2156 12.6886 6.73704 12.4004 6.43779C12.2539 6.28519 12.0592 6.2086 11.8639 6.2086Z" fill="#FFFFFF" stroke="#FFFFFF" stroke-width="0.5"/>
</svg>
