<?xml version="1.0" encoding="UTF-8"?>
<svg width="20px" height="20px" viewBox="0 0 20 20" version="1.1" xmlns="http://www.w3.org/2000/svg" xmlns:xlink="http://www.w3.org/1999/xlink">
    <!-- Generator: Sketch 57.1 (83088) - https://sketch.com -->
    <title>DesktopMenu / Icon / FileUpload / Default</title>
    <desc>Created with Sketch.</desc>
    <g id="DesktopMenu-/-Icon-/-FileUpload-/-Default" stroke="none" stroke-width="1" fill="none" fill-rule="evenodd">
        <g id="report" transform="translate(1.000000, -1.000000)" fill="#F2F2F2" fill-rule="nonzero">
            <path d="M16.4280329,0.5 L16.4280329,8 L14.4280329,8 L14.4280329,2.5 L7.066,2.5 L7.06683586,7.93838142 L2,7.93838142 L2,18.4945581 L3.02295798,19.2479792 L11.1354008,19.2479792 L11.1354008,21.2479792 L2.3659309,21.2479792 L0,19.5054419 L0,5.3979641 L3.90742402,0.5 L16.4280329,0.5 Z M11,14 L11,16 L3,16 L3,14 L11,14 Z M11,10 L11,12 L3,12 L3,10 L11,10 Z M13,6 L13,8 L8,8 L8,6 L13,6 Z M5.066,2.5 L4.87035376,2.5 L2.127,5.938 L5.06683586,5.93838142 L5.066,2.5 Z" id="Combined-Shape"></path>
        </g>
        <path d="M14.7481683,13.3358359 C14.9358154,13.3358359 15.1240507,13.2645859 15.269933,13.1220859 L15.8628742,12.5408047 L15.8628742,19.2479792 C15.8628742,19.6653855 16.1975801,20.0032292 16.6111095,20.0032292 C17.0246389,20.0032292 17.3593448,19.6647917 17.3593448,19.2479792 L17.3593448,12.5408047 L17.9528742,13.1226797 C18.2493448,13.4130234 18.7234625,13.4064922 19.0116978,13.1072422 C19.2993448,12.8079922 19.2928742,12.3294297 18.9964036,12.0384922 L17.1328742,10.2121172 C17.1028742,10.1824297 17.0646389,10.1687734 17.0311095,10.1456172 C16.9864036,10.1141484 16.9458154,10.0779297 16.8952272,10.0565547 C16.7134625,9.98114844 16.5093448,9.98114844 16.3275801,10.0565547 C16.2740507,10.0785234 16.2311095,10.1165234 16.1846389,10.1503672 C16.1534625,10.1723359 16.1181683,10.1848047 16.089933,10.2121172 L14.2269919,12.0384922 C13.9305213,12.3288359 13.9234625,12.8073984 14.2116978,13.1066484 C14.3581683,13.2592422 14.5528742,13.3358359 14.7481683,13.3358359 Z" id="Path" stroke="#F2F2F2" stroke-width="0.5" fill="#F2F2F2" fill-rule="nonzero" transform="translate(16.611585, 15.001615) rotate(-360.000000) translate(-16.611585, -15.001615) "></path>
    </g>
</svg>