<?xml version="1.0" encoding="UTF-8"?>
<svg width="20px" height="20px" viewBox="0 0 20 20" version="1.1" xmlns="http://www.w3.org/2000/svg" xmlns:xlink="http://www.w3.org/1999/xlink">
    <!-- Generator: Sketch 57.1 (83088) - https://sketch.com -->
    <title>ic-admin</title>
    <desc>Created with Sketch.</desc>
    <g id="Symbols" stroke="none" stroke-width="1" fill="none" fill-rule="evenodd">
        <g id="DesktopMenu-/-Icon-/-ClaimTask-/-Default-Copy" fill="#FFFFFF" fill-rule="nonzero">
            <g id="ic-admin">
                <path d="M11.4688129,0.120735403 C11.9864599,0.191323639 12.3864599,0.61485305 12.4570482,1.13250011 L12.6688129,2.75602952 C12.7158717,2.77955893 12.7394011,2.77955893 12.7864599,2.80308834 L14.104107,1.74426481 C14.504107,1.41485305 15.0452835,1.39132364 15.4688129,1.67367658 C16.4570482,2.33250011 17.304107,3.13250011 18.0099893,4.09720599 C18.3394011,4.54426481 18.3158717,5.13250011 17.9629305,5.53250011 L16.9982246,6.63838246 C17.0923423,6.80308834 17.1629305,6.96779423 17.2335187,7.15602952 L18.7158717,7.3207354 C19.1903815,7.36387266 19.5858063,7.70357854 19.7209098,8.15861667 L19.7511658,8.28544129 C19.9394011,9.46191187 19.9394011,10.6383825 19.7276364,11.8148531 C19.6335187,12.3325001 19.1864599,12.7325001 18.6452835,12.7795589 L17.3746952,12.8501472 C17.3276364,12.9442648 17.304107,13.0619119 17.2570482,13.1560295 L18.104107,14.0030883 C18.4805776,14.4030883 18.5511658,15.0148531 18.2452835,15.4619119 C17.5864599,16.4501472 16.7629305,17.297206 15.821754,18.0030883 C15.421754,18.3089707 14.8335187,18.3089707 14.4335187,18.0030883 L13.4923423,17.2736766 C13.304107,17.3677942 13.0923423,17.4619119 12.904107,17.5325001 L12.7629305,18.7560295 C12.7158717,19.2736766 12.3394011,19.6736766 11.821754,19.7677942 C11.1864599,19.8383825 10.5511658,19.9089707 9.9394011,19.9089707 C9.3276364,19.9089707 8.7394011,19.8619119 8.1276364,19.7442648 C7.60998934,19.6501472 7.23351875,19.2266178 7.18645993,18.7089707 L7.06881287,17.5325001 C6.88057757,17.4619119 6.66881287,17.3677942 6.48057757,17.2736766 L5.46881287,18.0266178 C5.06881287,18.3325001 4.50410698,18.3325001 4.10410698,18.0266178 C3.1394011,17.3207354 2.31587169,16.4736766 1.65704816,15.4854413 C1.35116581,15.0383825 1.39822463,14.4501472 1.75116581,14.0501472 L2.59822463,13.1089707 C2.57469522,13.0619119 2.55116581,12.9913236 2.5276364,12.9442648 L1.18645993,12.7795589 C0.668812866,12.7325001 0.268812866,12.3325001 0.174695219,11.8383825 C-0.0370694867,10.6619119 -0.0605988984,9.48544129 0.127636396,8.3089707 C0.221754043,7.81485305 0.598224631,7.41485305 1.11587169,7.34426481 L2.64528345,7.13250011 C2.69234228,6.99132364 2.76293051,6.85014717 2.83351875,6.73250011 L1.89234228,5.57955893 C1.56293051,5.17955893 1.5394011,4.59132364 1.84528345,4.16779423 C2.50410698,3.25014717 3.30410698,2.45014717 4.24528345,1.79132364 C4.69234228,1.48544129 5.28057757,1.5089707 5.68057757,1.86191187 L6.85704816,2.87367658 L7.02175404,2.80308834 L7.02175404,2.80308834 L7.28057757,1.1089707 C7.35116581,0.61485305 7.75116581,0.21485305 8.24528345,0.144264815 C9.30410698,-0.0439704791 10.3864599,-0.0439704791 11.4688129,0.120735403 Z M9.06881287,1.93250011 L8.80998934,3.67367658 C8.76293051,4.02661776 8.50410698,4.33250011 8.15116581,4.42661776 C7.79822463,4.54426481 7.46881287,4.68544129 7.1394011,4.85014717 C6.78645993,5.03838246 6.38645993,4.99132364 6.08057757,4.73250011 L4.88057757,3.69720599 C4.45704816,4.05014717 4.05704816,4.42661776 3.70410698,4.87367658 L4.66881287,6.07367658 C4.9276364,6.37955893 4.95116581,6.80308834 4.7394011,7.15602952 C4.5276364,7.53250011 4.3394011,7.93250011 4.19822463,8.33250011 C4.08057757,8.68544129 3.79822463,8.9207354 3.42175404,8.96779423 L1.89234228,9.17955893 C1.82175404,9.79132364 1.84528345,10.4030883 1.91587169,10.9913236 L3.3276364,11.1560295 C3.70410698,11.2030883 4.03351875,11.4619119 4.1276364,11.8383825 C4.22175404,12.1913236 4.36293051,12.5442648 4.5276364,12.897206 C4.69234228,13.2501472 4.64528345,13.6501472 4.38645993,13.9325001 L3.51587169,14.897206 C3.89234228,15.3677942 4.31587169,15.8148531 4.78645993,16.1913236 L5.84528345,15.4148531 C6.15116581,15.2030883 6.55116581,15.1795589 6.88057757,15.3677942 C7.30410698,15.6030883 7.75116581,15.8148531 8.22175404,15.9560295 C8.59822463,16.0736766 8.85704816,16.3795589 8.88057757,16.7795589 L8.99822463,17.9795589 C9.63351875,18.0501472 10.2923423,18.0501472 10.9276364,17.9795589 L11.0688129,16.7089707 C11.1158717,16.3325001 11.3746952,16.0266178 11.7276364,15.9089707 C12.1982246,15.7677942 12.6452835,15.5560295 13.0688129,15.297206 C13.3982246,15.0854413 13.821754,15.1089707 14.1276364,15.3677942 L15.1158717,16.1442648 C15.5629305,15.7677942 15.9629305,15.3442648 16.3394011,14.8736766 L15.4688129,13.9795589 C15.1864599,13.697206 15.1158717,13.2501472 15.304107,12.897206 C15.4923423,12.5207354 15.6570482,12.097206 15.7511658,11.697206 C15.8452835,11.297206 16.1982246,11.0148531 16.5982246,10.9913236 L17.9394011,10.897206 C18.0099893,10.3089707 18.0099893,9.69720599 17.9394011,9.1089707 L16.4335187,8.94426481 C16.0570482,8.89720599 15.7511658,8.66191187 15.6335187,8.3089707 C15.4923423,7.86191187 15.2805776,7.41485305 15.0452835,7.01485305 C14.8335187,6.66191187 14.8570482,6.21485305 15.1394011,5.9089707 L16.104107,4.75602952 C15.7276364,4.3089707 15.2805776,3.88544129 14.8099893,3.53250011 L13.4688129,4.59132364 C13.1864599,4.82661776 12.8099893,4.85014717 12.4805776,4.7089707 C12.1746952,4.56779423 11.8452835,4.45014717 11.5158717,4.35602952 C11.1629305,4.26191187 10.8805776,3.95602952 10.8335187,3.57955893 L10.6452835,1.9089707 C10.1276364,1.86191187 9.58645993,1.86191187 9.06881287,1.93250011 Z M9.9394011,6.19132364 C12.1511658,6.19132364 13.9394011,7.97955893 13.9394011,10.1913236 C13.9394011,12.4030883 12.1511658,14.1913236 9.9394011,14.1913236 C7.7276364,14.1913236 5.9394011,12.4030883 5.9394011,10.1913236 C5.9394011,7.97955893 7.7276364,6.19132364 9.9394011,6.19132364 Z M9.9394011,8.07367658 C8.78645993,8.07367658 7.82175404,9.01485305 7.82175404,10.1913236 C7.82175404,11.3677942 8.76293051,12.3089707 9.9394011,12.3089707 C11.1158717,12.3089707 12.0570482,11.3677942 12.0570482,10.1913236 C12.0570482,9.01485305 11.0923423,8.07367658 9.9394011,8.07367658 Z" id="Combined-Shape"></path>
            </g>
        </g>
    </g>
</svg>