<svg width="20" height="20" viewBox="0 0 20 20" fill="none" xmlns="http://www.w3.org/2000/svg">
<path fill-rule="evenodd" clip-rule="evenodd" d="M5 9.1034C5.55228 9.1034 6 8.67112 6 8.13788C6 7.60464 5.55228 7.17236 5 7.17236C4.44772 7.17236 4 7.60464 4 8.13788C4 8.67112 4.44772 9.1034 5 9.1034Z" fill="#F2F2F2"/>
<path fill-rule="evenodd" clip-rule="evenodd" d="M8 9.1034C8.55228 9.1034 9 8.67112 9 8.13788C9 7.60464 8.55228 7.17236 8 7.17236C7.44772 7.17236 7 7.60464 7 8.13788C7 8.67112 7.44772 9.1034 8 9.1034Z" fill="#F2F2F2"/>
<path fill-rule="evenodd" clip-rule="evenodd" d="M11 9.1034C11.5523 9.1034 12 8.67112 12 8.13788C12 7.60464 11.5523 7.17236 11 7.17236C10.4477 7.17236 10 7.60464 10 8.13788C10 8.67112 10.4477 9.1034 11 9.1034Z" fill="#F2F2F2"/>
<path fill-rule="evenodd" clip-rule="evenodd" d="M15 7.65495C15 11.6543 11.6421 14.8963 7.5 14.8963C3.35786 14.8963 0 11.6543 0 7.65495C0 3.65565 3.35786 0.413574 7.5 0.413574C11.6421 0.413574 15 3.65565 15 7.65495ZM2 7.65495C2 10.5878 4.46243 12.9653 7.5 12.9653C10.5376 12.9653 13 10.5878 13 7.65495C13 4.72213 10.5376 2.34461 7.5 2.34461C4.46243 2.34461 2 4.72213 2 7.65495Z" fill="#F2F2F2"/>
<path d="M11.8715 13.241L17.9626 19.1221C18.3532 19.4992 18.9863 19.4992 19.3769 19.1221C19.7674 18.7451 19.7674 18.1337 19.3769 17.7567L13.2857 11.8756C12.8952 11.4985 12.262 11.4985 11.8715 11.8756C11.481 12.2526 11.481 12.864 11.8715 13.241Z" fill="#F2F2F2"/>
</svg>
