<svg width="16" height="16" viewBox="0 0 16 16" fill="none" xmlns="http://www.w3.org/2000/svg">
<path d="M11.5938 4.15625C10.5729 3.21875 9.375 2.75 8 2.75C6.79167 2.75 5.70833 3.125 4.75 3.875C3.8125 4.60417 3.19792 5.55208 2.90625 6.71875C2.86458 6.90625 2.73958 7 2.53125 7H0.75C0.625 7 0.520833 6.95833 0.4375 6.875C0.375 6.77083 0.354167 6.66667 0.375 6.5625C0.729167 4.75 1.61458 3.25 3.03125 2.0625C4.46875 0.854167 6.125 0.25 8 0.25C10.0625 0.25 11.8438 0.96875 13.3438 2.40625L14.4688 1.28125C14.6979 1.05208 14.9688 1 15.2812 1.125C15.5938 1.25 15.75 1.47917 15.75 1.8125V6C15.75 6.20833 15.6771 6.38542 15.5312 6.53125C15.3854 6.67708 15.2083 6.75 15 6.75H10.8125C10.4792 6.75 10.25 6.59375 10.125 6.28125C10 5.96875 10.0521 5.69792 10.2812 5.46875L11.5938 4.15625ZM1 9.25H5.1875C5.52083 9.25 5.75 9.40625 5.875 9.71875C6 10.0312 5.94792 10.3021 5.71875 10.5312L4.40625 11.8438C5.42708 12.7812 6.625 13.25 8 13.25C8.79167 13.25 9.54167 13.0833 10.25 12.75C10.9583 12.3958 11.5625 11.9271 12.0625 11.3438C12.5625 10.7396 12.9062 10.0521 13.0938 9.28125C13.1354 9.09375 13.2604 9 13.4688 9H15.25C15.375 9 15.4688 9.05208 15.5312 9.15625C15.6146 9.23958 15.6458 9.33333 15.625 9.4375C15.2708 11.25 14.375 12.7604 12.9375 13.9688C11.5208 15.1562 9.875 15.75 8 15.75C5.9375 15.75 4.15625 15.0312 2.65625 13.5938L1.53125 14.7188C1.30208 14.9479 1.03125 15 0.71875 14.875C0.40625 14.75 0.25 14.5208 0.25 14.1875V10C0.25 9.79167 0.322917 9.61458 0.46875 9.46875C0.614583 9.32292 0.791667 9.25 1 9.25Z" fill="#1C8EC6"/>
</svg>
