<svg width="52" height="45" viewBox="0 0 52 45" fill="none" xmlns="http://www.w3.org/2000/svg">
<path fill-rule="evenodd" clip-rule="evenodd" d="M45.8508 39.4161C45.7784 39.5386 45.6646 39.5999 45.5093 39.5999H5.79073C5.63549 39.5999 5.52166 39.5386 5.44922 39.4161C5.35608 39.263 5.41817 39.1507 5.44922 39.0997L25.3085 5.58366C25.381 5.46116 25.4948 5.3999 25.65 5.3999C25.8053 5.3999 25.9191 5.46116 25.9915 5.58366L45.8508 39.0997C45.8819 39.1507 45.944 39.263 45.8508 39.4161Z" fill="white"/>
<path fill-rule="evenodd" clip-rule="evenodd" d="M30.536 2.76606L50.5277 36.6502C51.5487 38.3842 51.5591 40.4587 50.5486 42.1927C49.5276 43.9472 47.6941 45 45.6418 45H5.65822C3.60591 45 1.77238 43.9472 0.75143 42.1927C-0.259098 40.4587 -0.24868 38.3842 0.772265 36.6502L20.764 2.76606C21.7954 1.03211 23.6185 0 25.65 0C27.6815 0 29.515 1.03211 30.536 2.76606ZM45.6418 39.7878C45.7981 39.7878 45.9127 39.7259 45.9856 39.6021C46.0794 39.4472 46.0168 39.3337 45.9856 39.2821L25.9938 5.39793C25.9209 5.27408 25.8063 5.21216 25.65 5.21216C25.4938 5.21216 25.3792 5.27408 25.3062 5.39793L5.31446 39.2821C5.28321 39.3337 5.2207 39.4472 5.31446 39.6021C5.38739 39.7259 5.50198 39.7878 5.65825 39.7878H45.6418Z" fill="#D6004E"/>
<path d="M28.2079 29.7H23.9921L23.4 15.3H28.8L28.2079 29.7Z" fill="#D6004E"/>
<rect x="24.3" y="31.5" width="3.6" height="3.6" fill="#D6004E"/>
</svg>
